<?xml version="1.0" encoding="UTF-8"?>
<svg xmlns="http://www.w3.org/2000/svg" viewBox="0 0 599.82 599.94">
  <defs>
    <style>
      .cls-1 {
        fill: #b3b3b3;
      }

      .cls-1, .cls-2 {
        stroke: #4d4d4d;
        stroke-width: 2px;
      }

      .cls-1, .cls-2, .cls-3 {
        stroke-miterlimit: 10;
      }

      .cls-4 {
        fill: #4d4d4d;
      }

      .cls-5 {
        fill: #0071bc;
      }

      .cls-2 {
        fill: #ccc;
        opacity: .7;
      }

      .cls-6 {
        fill: #117f00;
        opacity: .6;
      }

      .cls-7 {
        fill: #29abe2;
      }

      .cls-3 {
        fill: gray;
        stroke: #231f20;
        stroke-width: .25px;
      }

      .cls-8 {
        opacity: .28;
      }

      .cls-8, .cls-9 {
        fill: #6caad5;
      }

      .cls-9 {
        opacity: .42;
      }

      .cls-10 {
        fill: #902e37;
      }
    </style>
  </defs>
  <g id="Layer_2" data-name="Layer 2">
    <circle class="cls-9" cx="299.9" cy="300" r="299.9"/>
    <path class="cls-8" d="M75.55,487.34c-7.07,12.99,49.94,66.72,119.07,93.56,15.96,6.2,80.66,29.63,163.1,13.43,64.21-12.62,108.37-43.2,129.69-60.26,19.98-16,54.06-47.49,79.74-97.85,19.59-38.42,27.42-74.34,30.56-100.65,2.96-24.8,5.06-68.65-9.92-119.85-5.48-18.74-16.04-47.98-36.71-79.64-11.29-17.28-31.77-44.75-64.48-70.79-26.11-20.79-50.49-33.09-66.04-39.93-13.45-5.91-38.78-16.85-73.8-21.62-20.41-2.78-85.04-9.04-89.43,5.5-6.94,23.01,153.22,44.04,215.54,161.1,48.75,91.55,10.43,190.72,6.71,199.95-34.92,86.49-115.04,139.14-187.87,152.98-113.94,21.65-207.36-52.1-216.16-35.94Z"/>
    <path class="cls-6" d="M229.27,555.37c-5.41-2.75-8.11-4.12-10.96-6.64-1.11-.99-6.28-5.69-9.28-13.73-.61-1.63-.04-.49-2.35-12.05-1.55-7.78-2.4-11.25-.38-13.52.9-1.01,1.47-.78,3.67-2.65,1.25-1.06,3.15-2.69,4.17-4.68,2.58-5.01-1.57-10.13,1.01-12.39.74-.65,1.07-.21,3.05-1.02,2.35-.96,3.68-2.32,5.68-4.29,6.92-6.83,6.78-6.08,7.33-7.2,1.44-2.97.7-4.65,2.91-8.34.89-1.49,1.47-1.98,2.15-2.91,4.4-6-.1-12.38,3.29-17.32,2.07-3.02,4.09-1.14,10.49-5.06,5.68-3.48,8.94-7.92,11.38-11.25,3.12-4.26,5.25-7.16,6.32-11.63,1.43-5.92-.76-7.29.42-15.35.34-2.32.95-6.26,3.11-10.81,2.23-4.69,5.56-8.87,6.57-10.11,2.32-2.84,3.17-3.31,3.98-5.18,1.49-3.47.84-7.11,0-9.73-3.63-5.07-7.38-7.33-10.17-8.47-5.4-2.2-8.97-.86-16.18-2.4-5.36-1.15-9.5-3.19-12.17-4.76-6.36-2.43-8.99-5.66-10.2-8.26-2.39-5.15.01-9.59-3.54-15.67-.53-.9-1.88-3.18-4.42-5.06-6.99-5.18-13.06-.05-20.73-4.35-.94-.52-.19-.23-8.97-8.92-4.7-4.65-7.08-6.99-8.34-7.84-4.96-3.32-9.87-4.3-15.17-5.36-6.46-1.3-6.04-.24-12.13-1.59-6.79-1.5-8.16-3-13.78-3.31-6.18-.34-8.89,1.24-9.6,1.69-1.77,1.11-2.86,2.48-4.68,4.78-3.5,4.43-3.35,6.17-5.43,7.07-2.15.93-3.12-.57-7.46-1.14-6.3-.83-8.22,1.8-12.39.63-1.97-.55-4.76-2.04-7.45-6.57-.28-3.33.55-5.28,1.39-6.45.76-1.06,1.41-1.33,2.02-2.4,1.14-2,.76-4.36.25-6.07-.83-.7-2.31-1.77-4.42-2.4-2.67-.8-4.94-.49-6.07-.25-.63-.19-3.55-1.11-4.93-3.92-1.54-3.13-.54-7.33,2.65-10.08.77-.69,2.76-2.67,3.54-5.97.75-3.16-.02-5.72-.38-6.7-3.96-.02-6.69.97-8.34,1.77-2.59,1.26-4.47,2.99-7.85,6.13-2.77,2.57-3.46,3.6-5.63,4.9-2.18,1.3-4.23,1.9-5.63,2.2-1.61-.48-4.89-1.69-7.71-4.77-4.5-4.92-4.47-10.89-4.43-12.27-.67-2.16-1.79-6.82-.47-12.46.94-3.98,2.73-6.87,3.97-8.56,3.17-1.91,7.29-3.96,12.31-5.52,9.32-2.89,17.5-2.73,22.72-2.19,1.38-.25,5.94-.89,10.69,1.7,3.84,2.09,5.76,5.18,6.48,6.5.61,2.15,1.62,4.79,3.31,7.57.8,1.31,1.63,2.45,2.44,3.44.76.63,2.42,1.87,3.44,1.34,1.19-.62.89-3.31.61-5.75-.47-4.21-1.47-5.37-1.71-8.57-.11-1.43-.08-3.56.66-6.23,1.42-2.33,3.21-4.92,5.46-7.6,2.71-3.23,5.44-5.8,7.85-7.81,1.85-1.33,4.5-3.56,6.84-7,2.81-4.13,3.9-8.11,4.37-10.51.34-.88,1.66-3.96,5.05-5.77,2.27-1.2,4.4-1.28,5.45-1.24,1.94.33,3.87.66,5.81.99,2.07.42,4.19-.28,5.51-1.84,1.55-1.84,1.72-4.58.37-6.73-.06-.46-.41-3.83,2.08-6.36,1.7-1.73,3.75-2.08,4.45-2.17.85-.26,2.14-.62,3.75-.89,4.31-.72,5.66.05,8.57-.61,3.47-.79,5.77-2.84,6.61-3.67,2.24-2.22,4.67-6.22,3.43-8.08-.82-1.23-2.5-.41-5.75-1.96-.78-.37-3.95-1.88-3.79-3.18.18-1.51,4.67-1.43,12.73-3.18,8.19-1.78,11.69-3.63,13.1-1.96.52.62.32,2.67-.12,6.73-.45,4.16-.85,5.76,0,6.36.73.52,1.92-.04,3.67-.86,2.57-1.2,4.38-2.05,5.63-4.04,2.16-3.44.84-7.43.61-8.08-2.28-1.7-4.24-2.89-5.63-3.67-1.71-.97-2.69-1.39-2.69-2.08,0-.97,1.93-1.38,4.9-3.06,2.36-1.33,5.23-2.95,5.14-4.28-.13-1.95-6.6-3.02-9.51-3.43-1.53-.82-3.43-2.18-4.45-4.41-2.64-5.79,3.12-12.09,1.1-14.2-2.44-2.55-11.64,5.92-17.13,2.69-4.2-2.47-2.2-9.42-5.63-10.77-3.67-1.45-10.92,4.54-14.81,11.87-6,11.31-1.76,21.57-8.08,25.09-.39.22-2.75,1.53-5.21.82-6.3-1.83-5.98-14.82-10.57-15.38-2.3-.28-2.93,2.91-6.73,3.43-2.72.37-4.04-1.05-8.87-3.36-1.15-.55-5.24-1.98-13.41-4.84-7.83-2.74-7.72-2.55-10.04-3.43-12.1-4.6-16.38-10.56-22.17-11.91-.88-.21-3.22-.65-5.49-2.41-1.3-1.01-1.45-1.58-2.08-1.83-1.54-.61-4.63,1.2-11.25,10.71-10.17,15.15-20.33,30.31-30.5,45.46l-24.19,58.26c-.18,1.03-.49,2.57-.99,4.41-.69,2.51-1.32,4.01-1.55,4.7-1.41,4.19,2.27,7.44,5.85,17.3,1.27,3.51,2.58,7.99,3.16,9.98,1.2,4.11,1.64,6.06,3.28,8.54.39.59,2,2.94,4.93,5.11,4.58,3.38,6.61,2.05,11.25,5.18,3.89,2.63,2.98,3.92,6.69,6.07,3.1,1.79,4.59,1.39,9.87,3.03,2.98.92,2.78,1.14,9.08,3.71,9.69,3.95,10.87,3.74,15.06,6.02,2.16,1.18,5.35,3.16,8.89,6.34,3.9,2.54,5.91,5.24,7.03,7.31,1.25,2.3,1.71,4.39,4.04,6.57,1.12,1.05,2.1,1.59,4.17,2.65,2.43,1.25,5.63,2.86,9.48,4.68,2.03,1.98,4.06,3.96,6.09,5.93.36,1.32,1.04,4.54-.15,8.35-1.02,3.28-2.93,5.37-3.92,6.32-1.63,2.12-3.61,5.15-5.18,9.1-1.9,4.75-2.49,9.01-2.66,11.95-.57,1.82-1.69,6.25-.25,11.55,1.15,4.24,3.4,7.08,4.68,8.47,2.31,2.64,4.62,5.33,6.95,8.09,2.51,2.97,4.95,5.92,7.33,8.85,1.7,4.26,3.41,8.52,5.11,12.77,3.76,4.56,7.46,6.98,10.06,8.33,4.79,2.49,8.09,2.53,12.64,5.81,3,2.17,4.95,4.59,6.07,6.19,1.41,3.69,2.82,8.23,3.79,13.52.86,4.67,1.19,8.91,1.26,12.51-.84,8.84-.31,16.03.38,21.11.45,3.3,1.31,7.13,3.03,14.79,2.11,9.37,2.97,11.64,3.67,13.27,1.64,3.82,2.53,4.49,6.08,10.86,3.82,6.87,3.6,7.57,5.8,11.38,6.52,11.3,16,18.27,20.33,21.46,1.6,1.18.84.53,9.12,6.22,7.76,5.34,8.6,6.03,11.12,7.33,7.46,3.85,11.86,3.88,13.99,3.73.74-.05,5.28-.39,5.47-1.72.21-1.49-5.15-2.72-14.07-7.25Z"/>
    <path class="cls-6" d="M156.91,268.92c-.04.13-.18.27-.41.54-.36.43-.88.79-1.34,1.12-1,.72-2.12,1.25-3.32,1.53-1.98.47-4.04.47-6.08.47-2,0-4-.01-6-.02-.52,0-1.05,0-1.54-.16-.44-.14-.83-.4-1.21-.67-2.63-1.86-4.89-4.24-7.61-5.97-3.93-2.5-8.59-3.5-13.06-4.83-2.59-.77-5.14-1.67-7.63-2.72-2.3-.97-4.73-2.23-5.77-4.5,1.19-2.73,4.49-4.07,7.45-3.76s5.61,1.97,7.93,3.84,4.45,3.99,6.99,5.54c2.43,1.48,5.17,2.39,7.91,3.18,5.69,1.65,11.5,2.86,17.37,3.62,1.87.24,4.7.49,5.97,2.11.29.37.41.52.35.68Z"/>
    <path class="cls-6" d="M243.3,114.77c3.67.53,7.86-1.83,10.13-4.67,2.15-2.7,3.57-5.9,5.56-8.72,4.93-6.99,12.96-11.06,20.91-14.18s16.3-5.65,23.25-10.63c3.41-2.44,6.42-5.44,8.87-8.85,2.39-3.31,4.3-7.31,3.74-11.35-1.15-.45-2.3-.89-3.45-1.34-.7-2.57,2.1-4.62,4.48-5.82,5.44-2.72,10.87-5.45,16.31-8.17-.28-.9-.56-1.8-.84-2.71-5.32-.45-10.74,4.25-15.56,1.95-.95-3.01,2.65-6.47.95-9.14-4.52-1.68-9.51-1.37-14.29-.76-6.98.9-13.9,2.39-20.55,4.67-5.41,1.86-10.63,4.23-15.84,6.59-10.82,5.41-22.1,10.05-33.11,15.04-.15.07-.33.16-.37.32-.04.13.02.26.07.38,1.14,2.6,2.94,4.89,5.23,6.57.76.56,1.61,1.08,2.04,1.93.39.75.38,1.63.34,2.46-.57,11.1-6.63,21.5-6.34,32.6.12,4.54,1.69,9.67,5.43,12.54.93.71,1.96,1.11,3.03,1.26Z"/>
    <path class="cls-6" d="M506.65,447.12c-2.89,3.64-6.47,6.84-9.28,10.5-4.52,5.89-6.92,13.36-9.97,20.09-2.27,5.02-8.68,11.02-13.11,14.11-5.67,3.95-12.88,5.61-19.71,4.52-3.01-.48-6.13-1.6-7.95-4.05-1.23-1.65-1.73-3.71-2.2-5.71-4.54-19.14-8.85-38.34-14.16-57.29-.41-1.44-.81-2.91-.8-4.41.01-1.7.56-3.35,1.07-4.97,2.55-8.15,4.18-16.59,4.85-25.1.14-1.76.24-3.54.05-5.3-.59-5.5-3.93-10.43-6.21-15.33-1.4-3.01-3.79-5.37-5.35-8.27-1.66-3.1-1.43-6.24-.96-9.66.91-6.65,2.23-13.23,3.45-19.83.08-.42.15-.88-.02-1.27-.19-.42-.62-.67-1.03-.89-6.68-3.6-13.35-7.21-20.03-10.81-4.96-2.68-7.15,0-11.83,1.59-4.01,1.36-8.14,2.32-12.33,2.93-8.58,1.26-17.3,1.15-25.95.86-.94-.03-1.89-.07-2.76-.42-1.32-.53-2.27-1.69-3.17-2.8-5.54-6.8-11.82-12.79-17.99-19-2.23-2.24-4.55-4.68-5.85-7.6-2.95-6.64.16-13.81.42-20.63.17-4.56-.92-9.07-1.51-13.6-.38-2.88-.55-5.79-.51-8.7.01-1.23.08-2.5.62-3.6.38-.77.98-1.41,1.56-2.04,2.56-2.74,5.12-5.46,7.67-8.2,5.36-5.79,10.35-11.17,17.42-14.96.91-.49,1.86-.97,2.56-1.74.73-.81,1.12-1.86,1.5-2.88,1.42-3.78,3.02-7.54,5.39-10.8,3.15-4.33,7.39-6.24,11.9-8.75l14.2-4.16s16.28-5.54,16.28-5.54c12.84,0,19.7,2.06,28.49,11.96,5.1,5.74,11.92,11.79,19.42,10.15,5.73-1.26,9.76-6.74,15.45-8.21,3.16-.82,6.49-.3,9.72.22,7.42,1.2,14.84,2.39,22.26,3.59,1.96.32,4.01.67,5.59,1.86,1.88,1.42,2.78,3.76,3.59,5.98,5.86,16.16,12.04,31.7,19.11,47.18,3.26,7.13,6.54,14.27,10.63,20.97,2.24,3.68,5.5,7.11,9.73,7.91,6.44,1.21,12.82-4.01,19.26-2.77.44.08.9.21,1.21.54.56.59.42,1.53.23,2.32-3.66,15.23-10.66,26.33-19.59,38.91l-10.73,15.93-4.85,12.81s0,15.58,0,15.58c.55,12.54.97,22.31-7.33,32.66-4.93,6.15-10.8,12.09-12.58,19.77-.63,2.7-.71,5.52-1.45,8.19-.86,3.1-2.48,5.73-4.41,8.17Z"/>
    <path class="cls-6" d="M533.46,442.78c.54-2.54,1.46-4.37,1.86-5.18,4.71-9.59,5.88-16.67,13.06-26.68,3.24-4.52,4.75-5.51,6.69-9.7,2.3-4.95,2.71-8.98,3.88-8.98.65,0,1.53,1.28,2.55,6.71,0,0,0,0,0,0,0,8.33-.26,10.1-.37,10.76-.15.91-.45,1.97-1.06,4.08-.51,1.79-1.58,5.48-3.35,9.87-1.08,2.69-3.1,7.62-6.84,13.49-1.68,2.64-4.28,6.69-8.7,11.16-1.82,1.85-3.47,3.27-4.68,4.27-3.01-.48-3.73-1.71-3.93-2.17-.28-.64-.13-1.09.46-4.79.39-2.45.33-2.27.44-2.82Z"/>
    <path class="cls-6" d="M589.83,223.74c0,1.1-.2,2.13-.77,4.09-.4,1.38-.88,2.74-1.21,4-11.2-.5-21.9-7.31-27.11-17.23-1.52.69-3.05,1.39-4.57,2.08l-.03,17.15c0,.58,0,1.19.25,1.71.3.63.9,1.06,1.48,1.45,1.34.92,2.69,1.83,4.03,2.75,1.42.97,2.9,1.96,4.59,2.29,4.98.96,10.59-4.07,14.22-6.94,2.05,6.47,3,13.58,2.09,20.34-.91,6.73-3.95,13.34-9.21,17.63-3.28,2.67-7.23,4.33-10.94,6.35-4.32,2.35-7.98,5.58-12.21,8.06-.94.55-2.16,1.07-3.06.47-.59-.39-.82-1.13-1-1.81-1.29-5.06-1.4-10.43-3.22-15.33-1.09-2.95-2.78-5.63-4.42-8.31-7.14-11.65-13.71-23.65-19.69-35.93-3.04-6.24-5.92-12.55-8.65-18.93-1.22-2.85-2.09-6.71-3.89-9.23-3.24-4.53-8.76-6.39-14-7.32-4.46-.79-9.14-1.34-12.93-3.81-1.32-.86-2.58-2.11-2.67-3.68-.11-1.87,1.43-3.37,2.81-4.65,2.07-1.91,3.9-5.78,1-7.88-1.71-1.24-4.06-1.13-6.08-.52-1.93.58-3.71,1.55-5.47,2.52-2.74,1.5-5.56,3.06-7.55,5.47-.33.4-.65.85-.76,1.36-.14.66.09,1.34.29,1.99.71,2.33,1.07,4.95.02,7.15-1.05,2.2-3.93,3.64-6.05,2.43-1.3-.74-1.99-2.27-2.12-3.76-.14-1.64.95-3.31.66-4.91-.29-1.59-1.71-3.13-2.65-4.43-2.34-3.23-5.01-6.23-7.95-8.93-3.25-2.98-7.18-5.72-11.59-5.68-.8,1.49-.57,3.35.13,4.88s1.82,2.83,2.85,4.17c1.88,2.43,3.54,5.11,4.23,8.1,1.58,6.84-2.92,14.51-9.65,16.48-.97-2.06-.15-4.51.91-6.52,1.06-2.02,2.4-4.02,2.48-6.3.12-3.35-2.46-6.11-4.85-8.45-2.94-2.87-8.91-7.88-13.25-7.73-1.08.04-2.12.39-3.14.73-5.09,1.72-10.17,3.44-15.26,5.16-2.33.79-4.74,1.62-6.57,3.28-4,3.63-4.14,10.15-8.03,13.9-1.6,1.54-3.7,2.46-5.85,3-5.64,1.4-12.17.03-15.99-4.35-3.03-3.49-4.01-8.65-2.45-13,2.06-5.76,6.81-7.77,12.32-8.54,0,0,4.17-2.2,4.19-2.21,3.64-1.92,5.53-6.76,3.44-10.45-.57-1-1.37-1.85-2.06-2.76-1.86-2.44-3-5.35-4.11-8.21-.46-1.18-.92-2.39-.97-3.66-.03-.79.11-1.58.25-2.36.66-3.72,1.33-7.44,1.99-11.16-3.78.84-8.95,12.07-13.26,5.5-1.17-1.78-1.02-4.17-.22-6.15.8-1.98,2.15-3.67,3.36-5.43,2.86-4.18,4.92-8.9,6.04-13.84,3.28-1.32,6.99,1.09,8.83,4.11,1.84,3.02,2.49,6.61,4.09,9.77,1.77,3.48,4.77,6.81,4.21,10.67-.49,3.34-3.51,5.67-6.41,7.39,2.41,2.07,5.99,2.31,9.03,1.39,3.09-.93,5.31-3.05,8.11-4.44,1.79-.89,4.24-1.09,5.88-2.3l4.66-3.38s4.89-2.1,4.89-2.1c5.31-2.28,13.53-.93,19.14-.89,1.98.01,4.06,0,5.78-.96,3.65-2.04,3.97-7,4.81-11.09.86-4.21,3.12-8.56,7.15-10.03-1.47-3.6-7.42-3.13-9.28-6.54-1.11-2.03-.26-4.56.84-6.61s2.45-4.14,2.3-6.45c-1.31-.99-3.02-1.39-4.65-1.23-3.85.38-6.89,3.65-8.29,7.26-1.4,3.61-1.5,7.56-1.82,11.41-.32,3.85-.94,7.85-3.18,11.01-2.86,4.05-8.24,6.14-13.09,6.09-.88,0-1.83-.11-2.48-.71-.89-.82-.87-2.23-.52-3.39.35-1.15.96-2.25,1.04-3.45.02-.33,0-.68-.21-.93-.17-.21-.44-.31-.69-.41-4.33-1.63-14.07-4.47-14.07-10.71-1.32-5.26,2.26-8.63,5.8-11.76,5.58-4.93,10.04-10.05,14.44-16.08,3.58-4.91,8.11-9.77,14.1-10.81,4.77-.83,9.58.92,14.09,2.71,2.22.88,4.48,1.8,6.35,3.29,1.64,1.31,2.93,3.02,4.54,4.38,2.75,2.31,6.28,3.43,9.71,4.49,3.89,1.21,7.78,2.42,11.67,3.63,3.58,1.11,7.16,2.23,10.84,2.93,1.8.35,3.91.51,5.23-.76.84-1.75-.42-3.71-1.44-5.36-2.75-4.44-2.79-8.92-4.15-13.69,10.3,8.14,18.5,15.65,24.57,21.56,7.52,7.33,18.42,18.05,29.89,34.12,3.11,4.36,5.52,8.07,7.12,10.61,0,0,0,0,0,0h0c2.89,2.89,4.51,5.6,6.02,8.12,4.12,6.86,1.94,3.1,3.63,6.01,4.79,8.25,7.19,12.37,7.82,13.51,2.12,3.86,3.9,7.1,6.05,11.65,1.06,2.23,1.81,3.96,3.32,7.42,2.26,5.19,3.87,9.16,4.95,11.89h0c.53,1.31,2.23,5.51,4.4,11.7,2.81,8.06,2.79,9.12,3.35,10.89.36,1.15.66,1.73.99,2.56.43,1.07.76,2.3,1.42,4.76.7,2.62,1.05,3.94,1.05,4.69Z"/>
    <path class="cls-6" d="M336.74,96.67c-.69-2.16-2.46-3.94-4.62-4.62-1.34-.43-2.78-.45-4.19-.47-1.65-.02-3.3-.04-4.95-.06-.63,0-1.26-.01-1.88.12-.84.19-1.6.63-2.34,1.07-2.85,1.69-5.89,3.6-7.08,6.69.03,1.21,1.12,2.18,2.29,2.49s2.41.1,3.6-.1c3.39-.59,6.78-1.17,10.17-1.76,1.57-.27,3.27-.4,4.74-.99s2.85-1.6,4.25-2.37Z"/>
  </g>
  <g id="Layer_4" data-name="Layer 4">
    <g>
      <ellipse class="cls-2" cx="114.11" cy="175.31" rx="50.7" ry="47.21"/>
      <g>
        <path class="cls-1" d="M126.98,177.63v22.12c-.13.9-.74,4.06-3.93,6.66-3.29,2.68-7.13,2.97-8.15,3.02-.79.08-5.18.49-9.11-2.21-3.96-2.72-4.48-6.54-4.56-7.22,0-7.46,0-14.92,0-22.37l9.02-9.18-6.55-5.53v-3.02s6.26,0,6.26,0v-2.39s8.15,0,8.15,0c0,.86-.01,1.72-.02,2.58,2.04-.06,4.09-.13,6.13-.19l.29,3.14-7.27,5.53,9.75,9.05Z"/>
        <path class="cls-3" d="M118.19,193.2c1.59.02,3.18.03,4.77.05.09-.54.29-2.2-.81-3.94-1.19-1.89-3.11-2.63-3.66-2.83-.43.49-.87,1.04-1.3,1.64-.47.65-.87,1.28-1.21,1.87.36.19,1.03.61,1.56,1.37.53.76.63,1.48.66,1.84Z"/>
        <path class="cls-3" d="M108.43,193.25h-2.31c-.07-.55-.24-2.4,1.11-4.25,1.16-1.6,2.79-2.29,3.42-2.53.85,1.14,1.71,2.28,2.56,3.42-.36.21-1,.63-1.5,1.36-.57.83-.66,1.61-.68,2h-2.59Z"/>
        <path class="cls-3" d="M112.27,195.15c.39.18,1.21.49,2.31.48,1.05,0,1.84-.31,2.23-.48.8,1.16,1.6,2.32,2.4,3.48-.41.29-1.03.66-1.86.95-1.06.37-2.01.43-2.61.43-.63,0-1.54-.08-2.56-.37-.95-.27-1.68-.63-2.18-.93.75-1.19,1.51-2.38,2.26-3.57Z"/>
        <ellipse class="cls-3" cx="114.62" cy="192.76" rx="1.5" ry="1.24"/>
        <path class="cls-4" d="M102.09,178.49h24.02c.04-.22.03-.41,0-.55-.2-.98-1.42-1.46-1.59-1.52-6.98,0-13.96,0-20.93,0-.28.14-1.11.6-1.4,1.46-.07.23-.1.44-.1.62Z"/>
        <path class="cls-4" d="M109.92,169.69c2.59,0,5.19,0,7.78,0-.12-.13-.32-.34-.61-.56-.36-.28-.59-.38-.59-.55,0-.12.11-.19.4-.41.16-.12.43-.31.8-.58-2.63-.04-5.26-.09-7.89-.13.28.26.54.43.74.54.28.16.44.2.48.34.04.16-.13.3-.41.58-.17.17-.42.43-.7.77Z"/>
        <path class="cls-4" d="M110.81,167.66c-.6-.07-1.2-.14-1.8-.2v-6.95c.6.03,1.2.05,1.8.08v7.08Z"/>
        <path class="cls-4" d="M119.29,167.46c-.74.07-1.48.14-2.22.2.06-2.3.12-4.59.17-6.89.68-.09,1.37-.18,2.05-.26v6.95Z"/>
        <path class="cls-4" d="M112.82,141.12v10.86c0,.81.69,1.5,1.5,1.5s1.5-.69,1.5-1.5v-10.86c0-.81-.69-1.5-1.5-1.5s-1.5.69-1.5,1.5h0Z"/>
        <path class="cls-4" d="M104.94,143.32v12.21c0,1.93,3,1.93,3,0v-12.21c0-1.93-3-1.93-3,0h0Z"/>
        <path class="cls-4" d="M120.64,143.37c0,4.14,0,8.28,0,12.42,0,1.93,3,1.93,3,0v-4.65c0-1.93-3-1.93-3,0v4.65h3c0-4.14,0-8.28,0-12.42,0-1.93-3-1.93-3,0h0Z"/>
      </g>
    </g>
  </g>
  <g id="Layer_5" data-name="Layer 5">
    <g>
      <path class="cls-2" d="M245.33,370.82c14,22.57,5.69,51.44-18.55,64.47-24.24,13.03-55.25,5.3-69.24-17.28-14-22.57-5.69-51.44,18.55-64.47,24.24-13.03,55.25-5.3,69.24,17.28Z"/>
      <g>
        <path class="cls-10" d="M165.63,411.84l5.33-5.01,4-3.78,1.52-1.41.12-.57-.43-.51.46-.32.05-.66-.68-1.06.5-.46-.05-.22-.4.14-.46-.46-.05-.89,1.47-1.37,1.77-1.35,2.48-1.91,3.07-2.63,1.04-.02,1.85,1.91.33-.23-.41-.66,1.14-.78-.3-.38,4.13-3.75,4.34-3.86,1.54-1.49,3.1,2.94-.86.82-1.93,1.89-1.57,1.54-1.85,1.74-1.78,1.66-1.88,1.66-.5-.35-.31.46-.55.58-.35-.34-.23.2.28.34-.02.58v.62l.61.62.86.91h.64l-.08.46.41.46,1.34,1.06,1.85,1.26,2.71,1.38-.15.34-.51,1.08-.69,1.09-1.04,1.37-1.54-.82-1.8-.98-1.95-1.2-1.07-.8-.36-.23-.26.15-.26.32-.45.4-.63.52-.64.63-.36.38-.4.46-.63.58-.02.54.15.31.3.23.38.37-.17.2-.12.52.2.4.23.52.18.66.25.46.31.42.12.26v.31l-.25.29-.56.31-.73.45-.76.49-.56.29-.36-.02-.21-.45-.28-.97-.18-1.12-.35-1.41-.2-1.17-.25-1.14-.36-.69-.4-.29-.56-.09h-.66l-.88.48-.92,1.08-.86,1.12-1.29,2.25-1.47,2.8-1.16,2.29-1.27,2.38-1.34,2.63-.94,1.78-1.19,1.52-7.55-6.01,4.21-4.04ZM185.98,390.87l-.1-.63-.41-.42-.59-.17-.54.18-.55.54-.72.67-1.13.98-1.09,1-1.09.99-.97.91-.49.53.06.88.38.75.45.25.49-.23.95-.88,1.73-1.71,1.24-1.21,1.22-1.05.97-1,.18-.38ZM185.85,402.64l2.05-1.86v-.58l-1.03-.86h-.6l-.75.62-.59.52v.33l.76.7.42.06.14.23-.62.04-.36-.19-.34-.29-.21-.25-.27-.11-.19.36.08.5.25.38.38.3.43.1h.43Z"/>
        <path class="cls-10" d="M204.95,379.24l-3.1-2.63,2.64-2.44.37-.1-.14-2.41-.12-1.81.56-.44.8.59,1.02.89,1.05.98.41.3,1.16-.9,1.51-1.44,1.48-1.49,1.55-1.41,1.34-1.19.14-.44h.29v-.3l.39.06v-.49l1.19-.97,1.16,1.01-1.36,1.43-.51.03.03.29-.34-.02-.15.55-2.28,1.85-1.85,1.76-2.67,2.53.36.24.19-.22.36.36-.7,1.05-.87-.73-1.51,1.39,1.87,1.68-.37.16-.54-.16-.73-.86-.49.24.07.44.32.27-.07.29-2.45,2.04ZM206.45,374.05l1.25-1.16-.19-.17-1.22,1.15.15.19ZM205.96,373.32l.67-.6.72-.73-.58-.56-.56-.06-.61-.58-.36.22-.06.68.18,1.04.19.71.42-.11Z"/>
        <path class="cls-10" d="M241.44,415.79l-3.65,3.28-3.99,2.86-1.25-1.98-1.99-3.77-1.46-2.61-2.33-4.62-1.87-3.2-1.15-1.3-.93-.81h-1.23l-.76.51-.32,1.21-.34,1.54-.34,1.78-.62,2.31-.93-.34-1.21-.71-1.36-.99.57-.59.38-.93.4-1.32.11-.49-.34-.34.59-.28.32-.49.08-.41-.38-.61-1.04-.95-2.19-2.15-3.23,2.23-3.61,1.82-1.1-1.38-.79-1.23-.55-1.28,3.61-1.78,2.72-2.19-.08-.63h.59l1.57-1.46-.04-1.21.34-.38-.28-.2-.38.36-.85-1.17-.64.51-4.54-4.31-5.33-5.28-6.15-5.81.36-.65-.25-.28h-.42l-.34.36-.3.41-.53.2-.42-.16.28-.4.7-.49.72-.61.13-.4-.4-.51-.66-.57h-.47l-.3.2-.32.26-.4-.2-.28-.49v-.47l.28-.18.28.12.28-.24-.83-.53-1.12-1.07-2.5-2.37-2.57-2.43-.45-.14v-.36h-.38v-.45l-.47-.12-.89-.79,1.06-1.03,1.34,1.19.38.38v.43l.4-.06.02.45.3-.02,1.46,1.34,5.16,4.88,3.1-2.75.51.02.4.36-.02,1.01-.17,2.19.02,1.07.38.14,10.08,8.99,6.26,5.85-.25.49,1.08.77-.45.65.32.22,1.97-1.86,1.06.04,8.72,7.17-.02.93-.47.47-.36-.22-.23.34.59.45-.68,1.21.62.71-.04.36-.47.45,3.88,3.75,7.3,6.8,3.99,3.97ZM197.37,372.95l.15-.52.11-.59-.09-.77-.28-.18-.56.52h-.44l-.69.64,1.65,1.41.16-.51ZM196.59,373.91l-1.15-1.12-.28.05.44.44.84.75.15-.12ZM224.45,396.4l-.1-1.17-5.89-5.58h-.95l-.63.66v.66l6.79,6.4.78-.98ZM217.91,400.46l-1.24-1.12h-.9l-.75.75v.68l1.94,1.79h1.04l.73-.79-.35-.89-.58.64-.46.29-.46.03-.36-.1.28-.22.48-.03.43-.42.19-.29.04-.31Z"/>
      </g>
    </g>
  </g>
  <g id="Layer_7" data-name="Layer 7">
    <g>
      <ellipse class="cls-2" cx="483.58" cy="300" rx="50.7" ry="47.21"/>
      <g>
        <g>
          <polygon class="cls-4" points="455.77 320.81 454.1 320.57 452.74 320.81 450.8 321.24 448.51 321.55 447.1 321.39 445.51 320.57 444.45 319.52 444.1 318.42 444.1 316.94 444.72 315.65 446.22 314.71 447.98 314.08 449.94 313.54 451.72 312.99 453.53 311.62 454.59 310.68 456.52 309.16 458.42 308.22 459.92 307.71 460.93 307.71 461.77 308.26 462.6 309.16 463.17 310.45 463.48 312.28 463.7 313.77 464.36 315.22 465.33 316.31 466.83 316.98 468.5 317.64 469.61 318.46 470.35 319.63 470.35 321.08 470.09 322.88 469.34 324.21 468.2 325.11 466.35 325.73 463.88 325.73 461.77 324.68 460.09 323.39 458.77 322.41 457.54 321.59 456.39 321.08 455.77 320.81"/>
          <polygon class="cls-4" points="451.28 311.7 452.56 310.25 453.35 308.42 453.35 306.03 452.96 303.8 451.99 301.65 450.53 299.82 448.95 298.41 447.63 298.02 446.83 298.37 446.08 299.07 444.68 301.14 443.75 302.86 443.35 304.47 443.13 306.27 443.35 308.49 443.71 309.98 444.72 311.89 445.95 312.83 447.36 313.14 448.86 312.71 450.22 312.25 451.28 311.7"/>
          <polygon class="cls-4" points="468.11 315.92 466.26 314.9 465.16 313.42 464.76 311.74 465.02 310.33 465.91 309.39 467.31 308.81 468.94 307.95 470.35 306.62 472.07 305.29 473.83 304.35 475.24 304.35 476.21 304.55 477.14 305.58 477.49 307.2 477.49 309.35 476.7 312.01 475.68 314 474.27 315.49 472.73 316.39 470.62 316.72 469.21 316.35 468.11 315.92"/>
          <polygon class="cls-4" points="475.68 303.06 475.38 302.28 476.52 300.44 477.49 298.53 478.11 296.69 478.5 298.68 478.5 300.52 478.15 302.2 477.49 303.72 476.94 303.72 476.21 303.37 475.68 303.06"/>
          <polygon class="cls-4" points="449.83 296.69 449.83 295.24 450.05 293.68 450.31 292.35 450.31 291.18 449.08 292.66 448.07 293.93 447.01 295.28 446.22 296.85 447.01 297.28 448.26 297.28 449.17 296.96 449.83 296.69"/>
          <polygon class="cls-4" points="458.68 303.72 457.01 303.92 455.33 303.45 454.19 302.12 453.75 300.48 453.75 298.56 453.75 296.1 454.54 293.95 455.91 292.04 457.49 290.63 458.9 289.81 460.49 289.81 461.85 290.36 463.26 291.45 463.92 293.21 463.92 295.16 463.62 297.82 462.91 299.7 461.63 301.73 460.14 303.02 458.68 303.72"/>
          <polygon class="cls-4" points="464.76 305.17 463.92 303.72 463.7 301.42 463.92 298.88 464.76 296.69 465.91 294.5 467.01 293.25 468.33 292.43 469.78 292.19 471.76 292.66 473.09 294.23 473.88 296.34 473.66 299.35 472.69 302.08 471.12 304.35 469.25 305.58 467.54 306.34 465.64 305.87 464.76 305.17"/>
          <polygon class="cls-4" points="469.03 290.63 469.74 289.81 470.22 288.48 470.62 287.35 470.88 286.17 470.88 285.63 471.5 286.56 471.72 287.93 471.72 289.26 471.72 290.63 471.72 291.41 470.62 291.41 469.56 290.94 469.03 290.63"/>
          <polygon class="cls-4" points="462.82 289.5 460.66 289.07 459.34 288.52 460.31 287.03 461.68 285.63 462.82 284.77 463.7 284.34 463.22 285.63 462.87 286.92 462.78 288.52 462.82 289.5"/>
        </g>
        <g>
          <polygon class="cls-4" points="510.36 311.45 508.78 311.99 507.72 312.8 506.29 314.03 504.48 315.31 503.17 315.8 501.34 315.8 499.83 315.35 498.91 314.56 498.07 313.27 497.88 311.88 498.64 310.41 499.82 309.08 501.21 307.74 502.44 306.47 503.24 304.49 503.62 303.21 504.44 301.03 505.55 299.37 506.56 298.27 507.44 297.82 508.48 297.92 509.71 298.33 510.93 299.19 512.23 300.65 513.26 301.84 514.65 302.79 516.1 303.31 517.77 303.22 519.6 303.06 521.01 303.28 522.32 303.96 523.14 305.21 523.92 306.89 524.02 308.37 523.54 309.66 522.29 311.02 520.15 312.12 517.73 312.14 515.55 311.77 513.85 311.51 512.32 311.34 511.05 311.41 510.36 311.45"/>
          <polygon class="cls-4" points="501.33 305.55 501.63 303.73 501.28 301.79 499.93 299.73 498.34 297.97 496.29 296.54 493.99 295.59 491.83 295.08 490.46 295.33 489.97 295.98 489.72 296.93 489.67 299.34 489.83 301.24 490.39 302.81 491.22 304.46 492.66 306.29 493.8 307.42 495.76 308.63 497.36 308.9 498.75 308.54 499.81 307.51 500.73 306.5 501.33 305.55"/>
          <polygon class="cls-4" points="518.28 301.74 516.11 301.68 514.32 300.89 513.03 299.61 512.47 298.27 512.7 297.07 513.59 295.93 514.52 294.47 514.99 292.69 515.73 290.78 516.72 289.18 517.95 288.56 518.89 288.3 520.28 288.78 521.5 290.03 522.71 291.89 523.52 294.55 523.77 296.72 523.38 298.63 522.55 300.1 520.91 301.32 519.48 301.63 518.28 301.74"/>
          <polygon class="cls-4" points="517.6 287.24 516.89 286.7 516.85 284.6 516.61 282.52 516.11 280.65 517.57 282.2 518.61 283.79 519.25 285.4 519.54 287.02 519.06 287.26 518.23 287.28 517.6 287.24"/>
          <polygon class="cls-4" points="491.62 293.2 490.8 291.95 490.11 290.49 489.59 289.23 488.93 288.21 488.7 290.04 488.54 291.59 488.38 293.23 488.58 294.94 489.51 294.96 490.6 294.4 491.2 293.73 491.62 293.2"/>
          <polygon class="cls-4" points="503.25 295.36 501.91 296.28 500.2 296.61 498.46 295.97 497.15 294.74 496.07 293.08 494.68 290.95 494.16 288.74 494.26 286.47 494.84 284.55 495.6 283.21 496.97 282.51 498.46 282.38 500.3 282.7 501.87 283.93 502.97 285.62 504.2 288.06 504.64 290 504.68 292.33 504.11 294.11 503.25 295.36"/>
          <polygon class="cls-4" points="509.33 293.92 507.79 293.04 506.3 291.14 505.06 288.84 504.55 286.57 504.31 284.17 504.56 282.6 505.24 281.3 506.37 280.45 508.34 279.97 510.37 280.75 512.25 282.22 513.75 284.93 514.46 287.73 514.38 290.38 513.45 292.28 512.39 293.7 510.49 294.14 509.33 293.92"/>
          <polygon class="cls-4" points="504.84 279.43 504.98 278.41 504.66 277.04 504.36 275.88 503.93 274.75 503.62 274.28 504.68 274.82 505.64 275.9 506.39 277.05 507.16 278.24 507.6 278.92 506.65 279.4 505.47 279.47 504.84 279.43"/>
          <polygon class="cls-4" points="498.82 281.2 496.71 281.79 495.26 281.9 495.26 280.19 495.65 278.36 496.15 277.11 496.68 276.35 496.98 277.68 497.4 278.95 498.23 280.38 498.82 281.2"/>
        </g>
      </g>
    </g>
  </g>
  <g id="Layer_8" data-name="Layer 8">
    <g>
      <ellipse class="cls-2" cx="415.66" cy="138.72" rx="50.7" ry="47.21"/>
      <g>
        <path class="cls-5" d="M443.08,135.68c-.6-5.27-2.74-10.35-6.09-14.46.81-.64,1.61-1.28,2.42-1.92,1.55.9,3.77,1.47,4.92.1,1.23-1.45.11-3.65-1.11-5.1-.89-1.05-1.84-2.05-2.84-3-.93-.88-2-1.75-3.28-1.82-1.28-.07-2.56.79-2.97,2-.41,1.21.08,2.67,1.14,3.39-.72.82-1.44,1.64-2.16,2.46-4.27-3.21-9.39-5.28-14.69-5.93l.37-3.33c1.2.27,2.55-.34,3.14-1.42s.38-2.54-.49-3.41c-.93-.93-2.36-1.1-3.67-1.17-1.39-.07-2.78-.08-4.17-.02-1.21.05-2.5.18-3.42.96-.97.82-1.3,2.31-.76,3.47s1.89,1.86,3.15,1.64c.12,1.11.25,2.21.37,3.32-5.26.64-10.34,2.78-14.48,6.09-.71-.82-1.41-1.64-2.12-2.46.94-.7,1.39-2,1.07-3.13s-1.38-2.01-2.55-2.11c-1.47-.13-2.79.85-3.87,1.86-1.07,1-2.07,2.07-2.98,3.21-.68.85-1.33,1.8-1.38,2.88-.06,1.23.78,2.46,1.95,2.85,1.17.39,2.58-.1,3.26-1.12.89.69,1.78,1.39,2.67,2.08-3.17,4.21-5.2,9.25-5.84,14.48-1.12-.06-2.24-.13-3.35-.19.21-1.3-.57-2.71-1.8-3.2s-2.77-.03-3.52,1.05c-.57.83-.68,1.89-.74,2.89-.07,1.4-.07,2.81,0,4.21.1,1.93.71,4.29,2.59,4.72,1.84.42,3.51-1.54,3.58-3.42l3.3-.35c.52,5.28,2.61,10.39,5.94,14.52l-2.35,2.1c-.83-.75-1.95-1.24-3.07-1.12-1.11.13-2.17.95-2.38,2.05-.22,1.16.47,2.28,1.19,3.21,1.18,1.53,2.52,2.93,3.99,4.17.77.65,1.62,1.28,2.62,1.41,1.29.17,2.64-.65,3.1-1.87.46-1.22-.03-2.72-1.11-3.44.68-.87,1.35-1.74,2.03-2.62,4.22,3.24,9.34,5.31,14.62,5.9-.12,1.08-.24,2.16-.36,3.24-1.65.36-3.54,1.39-3.52,3.08.02,1.08.87,1.99,1.86,2.42.99.42,2.1.45,3.17.46,1.15.02,2.3.04,3.45.06,1.24.02,2.58.01,3.59-.71,1.06-.76,1.48-2.3.97-3.5-.51-1.2-1.92-1.95-3.2-1.71-.05-.65-.15-1.16-.23-1.51-.05-.21-.14-.55-.2-1.02-.06-.49-.08-.74.03-.89.23-.3.77-.11,1.52-.1.49.01,1.19-.19,2.6-.59.54-.15,1.25-.36,2.17-.69,2-.72,3.27-1.44,5.69-2.8,1.34-.76,1.57-.96,1.77-1.25.16-.24.31-.54.57-.57.3-.03.56.32.82.66.33.43.81,1.03,1.46,1.76-1.05.83-1.48,2.2-1.07,3.38.42,1.2,1.68,2.04,2.94,1.98,1.17-.06,2.19-.8,3.08-1.57,1.28-1.11,2.46-2.34,3.5-3.67.59-.75,1.16-1.58,1.26-2.53.14-1.27-.69-2.57-1.89-3-1.2-.42-2.66.08-3.35,1.15-.8-.87-1.74-1.62-2.76-2.21,3.37-4.11,5.5-9.22,6.03-14.51,1.01.04,2.01.07,3.02.11.3.95.65,1.92,1.32,2.66.67.74,1.74,1.21,2.69.89,1.56-.52,1.84-2.58,1.83-4.22,0-1.53,0-3.07-.01-4.6,0-.95-.01-1.94-.38-2.82-.37-.88-1.18-1.64-2.14-1.65-1.48,0-2.96,1.34-3.05,2.55-.03.39.09.73-.15,1-.23.26-.61.24-1.49.24-.41,0-1.04,0-1.81.03Z"/>
        <ellipse class="cls-7" cx="424.17" cy="152.52" rx="2.47" ry="2.17"/>
        <ellipse class="cls-7" cx="411.68" cy="156.3" rx="4.3" ry="3.72"/>
        <ellipse class="cls-7" cx="398.61" cy="142.13" rx="6.32" ry="5.86"/>
        <circle class="cls-7" cx="415.97" cy="132.9" r="4.88"/>
        <circle class="cls-7" cx="431.92" cy="135.26" r="6.58"/>
        <circle class="cls-7" cx="403.45" cy="126.55" r="3.92"/>
        <circle class="cls-7" cx="419.47" cy="119.95" r="1.71"/>
      </g>
    </g>
  </g>
</svg>